<svg width="169" height="170" viewBox="0 0 169 170" fill="none" xmlns="http://www.w3.org/2000/svg">
<g filter="url(#filter0_d_13_4)">
<path fill-rule="evenodd" clip-rule="evenodd" d="M66 6C49.4315 6 36 19.4315 36 36V74C36 90.5685 49.4315 104 66 104H103C119.569 104 133 90.5685 133 74V36C133 19.4315 119.569 6 103 6H66ZM101.807 57.351C101.807 52.7235 104.337 48.5588 108.434 46.1294C105.663 42.3118 101.084 40.1137 96.2651 40.2294C93.6117 40.2294 91.2011 41.1231 89.1741 41.8746C87.7035 42.4198 86.4348 42.8902 85.4217 42.8902C84.3083 42.8902 83.0316 42.3973 81.6018 41.8454C79.7825 41.1431 77.7154 40.3451 75.4217 40.3451C67.7108 40.3451 60 46.4765 60 57.9294C60.1205 64.9863 62.4096 71.6961 66.3855 77.4804C69.3976 81.6451 72.0482 85 75.9036 85C77.7361 85 79.0786 84.4512 80.4875 83.8753C82.0429 83.2394 83.6791 82.5706 86.1446 82.5706C88.6521 82.5706 90.1811 83.197 91.648 83.7979C93.0004 84.3519 94.3 84.8843 96.2651 84.8843C100.361 84.8843 103.133 81.1824 105.783 77.5961C107.59 75.051 109.036 72.2745 110 69.2667C105.06 67.3 101.807 62.5569 101.807 57.351ZM97.3494 27.1569C97.2289 30.1647 96.1446 33.0569 94.0964 35.3706C92.0482 37.8 89.0361 39.4196 85.7831 39.651C85.6627 39.651 85.512 39.6221 85.3614 39.5931C85.2108 39.5642 85.0602 39.5353 84.9398 39.5353C84.8193 39.1882 84.8193 38.8412 84.8193 38.4941C84.9398 35.4863 86.1446 32.7098 88.1928 30.5118C90.4819 27.9667 93.7349 26.3471 97.2289 26C97.3494 26.3471 97.3494 26.8098 97.3494 27.1569Z" fill="#1181F1"/>
</g>
<defs>
<filter id="filter0_d_13_4" x="0.700001" y="0.700001" width="167.6" height="168.6" filterUnits="userSpaceOnUse" color-interpolation-filters="sRGB">
<feFlood flood-opacity="0" result="BackgroundImageFix"/>
<feColorMatrix in="SourceAlpha" type="matrix" values="0 0 0 0 0 0 0 0 0 0 0 0 0 0 0 0 0 0 127 0" result="hardAlpha"/>
<feOffset dy="30"/>
<feGaussianBlur stdDeviation="17.65"/>
<feComposite in2="hardAlpha" operator="out"/>
<feColorMatrix type="matrix" values="0 0 0 0 0.254583 0 0 0 0 0.452292 0 0 0 0 0.65 0 0 0 0.15 0"/>
<feBlend mode="normal" in2="BackgroundImageFix" result="effect1_dropShadow_13_4"/>
<feBlend mode="normal" in="SourceGraphic" in2="effect1_dropShadow_13_4" result="shape"/>
</filter>
</defs>
</svg>
