<svg width="177" height="170" viewBox="0 0 177 170" fill="none" xmlns="http://www.w3.org/2000/svg">
<g filter="url(#filter0_d_1_122)">
<path fill-rule="evenodd" clip-rule="evenodd" d="M65.54 6C48.9715 6 35.54 19.4315 35.54 36V74.1158C35.54 90.6843 48.9715 104.116 65.5401 104.116H111.46C128.029 104.116 141.46 90.6843 141.46 74.1158V36C141.46 19.4315 128.029 6 111.46 6H65.54ZM121.38 22H110.113L91.5821 43.3475L75.4232 22H52.0002L79.8706 58.4687L53.4827 88.7111H64.7495L85.2075 65.4363L102.997 88.7111H125.827L96.7708 50.3151L121.38 22ZM112.337 81.8917H106.11L65.1942 28.3746H72.0136L112.337 81.8917Z" fill="#1181F1"/>
</g>
<defs>
<filter id="filter0_d_1_122" x="0.24004" y="0.700001" width="176.52" height="168.716" filterUnits="userSpaceOnUse" color-interpolation-filters="sRGB">
<feFlood flood-opacity="0" result="BackgroundImageFix"/>
<feColorMatrix in="SourceAlpha" type="matrix" values="0 0 0 0 0 0 0 0 0 0 0 0 0 0 0 0 0 0 127 0" result="hardAlpha"/>
<feOffset dy="30"/>
<feGaussianBlur stdDeviation="17.65"/>
<feComposite in2="hardAlpha" operator="out"/>
<feColorMatrix type="matrix" values="0 0 0 0 0.254583 0 0 0 0 0.452292 0 0 0 0 0.65 0 0 0 0.15 0"/>
<feBlend mode="normal" in2="BackgroundImageFix" result="effect1_dropShadow_1_122"/>
<feBlend mode="normal" in="SourceGraphic" in2="effect1_dropShadow_1_122" result="shape"/>
</filter>
</defs>
</svg>
